<svg width="24" height="32" viewBox="0 0 24 32" fill="none" xmlns="http://www.w3.org/2000/svg">
<path d="M9.5 4C9.75 4 10 4.25 10 4.5V5.5C10 5.8125 9.75 6 9.5 6H6.5C6.1875 6 6 5.8125 6 5.5V4.5C6 4.25 6.1875 4 6.5 4H9.5ZM23 3H22V12.8125C23.25 13.4375 24 14.1875 24 15C24 18.875 22.1875 22.25 19.375 24.4375L20.875 29.4375C21.25 30.75 20.3125 32 19 32H5C3.625 32 2.6875 30.75 3.0625 29.4375L4.5625 24.4375C1.75 22.25 0 18.875 0 15C0 14.1875 0.6875 13.4375 2 12.8125V3H1C0.4375 3 0 2.5625 0 2V1C0 0.5 0.4375 0 1 0H23C23.5 0 24 0.5 24 1V2C24 2.5625 23.5 3 23 3ZM5 3V11.8125C6.9375 11.3125 9.375 11 12 11C14.5625 11 17 11.3125 19 11.8125V3H5ZM6.3125 29H17.625L16.6875 26.0625C15.25 26.6875 13.6875 27 12 27C10.3125 27 8.6875 26.6875 7.25 26.0625L6.3125 29ZM12 24C15.9375 24 19.3125 21.4375 20.5 17.875C18.3125 18.5625 15.3125 19 12 19C8.625 19 5.625 18.5625 3.4375 17.875C4.625 21.4375 8 24 12 24ZM12 16.75C16.8125 16.75 20.6875 16 20.6875 15C20.6875 14.0625 16.8125 13.25 12 13.25C7.125 13.25 3.25 14.0625 3.25 15C3.25 16 7.125 16.75 12 16.75Z" fill="black" fill-opacity="0.16"/>
</svg>
